<svg id="Ebene_1" data-name="Ebene 1" xmlns="http://www.w3.org/2000/svg" width="40" height="40" viewBox="0 0 40 40"><rect x="0.38" y="0.38" width="39.25" height="39.25" fill="#fff"/><path d="M39.25.75v38.5H.75V.75h38.5M40,0H0V40H40V0Z"/><path d="M7.34,32.21a.54.54,0,0,1-.16-.42V26.2a1,1,0,0,1,.27-.69L18.67,11.82a.13.13,0,0,0,0-.15.16.16,0,0,0-.15-.08H7.76a.57.57,0,0,1-.42-.15A.56.56,0,0,1,7.18,11V6a.55.55,0,0,1,.16-.42.57.57,0,0,1,.42-.15H26.3a.61.61,0,0,1,.43.15.58.58,0,0,1,.15.42v5.56a1,1,0,0,1-.27.73L15.32,25.93a.13.13,0,0,0,0,.16c0,.05.08.07.15.07H26.3a.54.54,0,0,1,.58.58v5.05a.54.54,0,0,1-.58.58H7.76A.54.54,0,0,1,7.34,32.21Z" fill="#1d1d1b"/><path d="M35,28.51a.18.18,0,0,1,.06.15v1.76a.21.21,0,0,1-.21.21H33.32s-.07,0-.07.06v1.58a.25.25,0,0,1,0,.15.2.2,0,0,1-.15,0H31.28a.18.18,0,0,1-.2-.2V30.69s0-.06-.07-.06H29.43a.2.2,0,0,1-.15-.06.21.21,0,0,1-.05-.15V28.66a.21.21,0,0,1,.05-.15.2.2,0,0,1,.15-.06H31a.06.06,0,0,0,.07-.07V26.81a.17.17,0,0,1,.05-.15.2.2,0,0,1,.15-.06h1.77a.2.2,0,0,1,.15.06.21.21,0,0,1,0,.15v1.57c0,.05,0,.07.07.07h1.57A.18.18,0,0,1,35,28.51Z" fill="#1d1d1b"/></svg>