<svg id="Ebene_1" data-name="Ebene 1" xmlns="http://www.w3.org/2000/svg" width="40" height="40" viewBox="0 0 40 40"><rect x="0.38" y="0.38" width="39.25" height="39.25" fill="#fff"/><path d="M39.25.75v38.5H.75V.75h38.5M40,0H0V40H40V0Z"/><path d="M7.34,32.21a.54.54,0,0,1-.16-.42V26.2a1,1,0,0,1,.27-.69L18.67,11.82a.13.13,0,0,0,0-.15.16.16,0,0,0-.15-.08H7.76a.57.57,0,0,1-.42-.15A.56.56,0,0,1,7.18,11V6a.55.55,0,0,1,.16-.42.57.57,0,0,1,.42-.15H26.3a.61.61,0,0,1,.43.15.58.58,0,0,1,.15.42v5.56a1,1,0,0,1-.27.73L15.32,25.93a.13.13,0,0,0,0,.16c0,.05.08.07.15.07H26.3a.54.54,0,0,1,.58.58v5.05a.54.54,0,0,1-.58.58H7.76A.54.54,0,0,1,7.34,32.21Z" fill="#1d1d1b"/><path d="M29.83,31a.18.18,0,0,1-.06-.15V29a.21.21,0,0,1,.21-.21h4.69a.17.17,0,0,1,.14.06.18.18,0,0,1,.06.15V30.8a.18.18,0,0,1-.06.15.17.17,0,0,1-.14.06H30A.18.18,0,0,1,29.83,31Z" fill="#1d1d1b"/></svg>